<svg id="Capa_1" enable-background="new 0 0 512 512" height="512" viewBox="0 0 512 512" width="512" xmlns="http://www.w3.org/2000/svg"><g><g><path d="m445.047 105.179c-1.465 40.039-28.335 74.94-59.262 97.517-13.416 9.794-32.041-1.561-29.68-18.003 5.246-36.53-13.68-56.078-13.68-82.948 0-28.378 23.024-51.379 51.411-51.342 29.443.039 52.288 25.354 51.211 54.776z" fill="#cde9fa"/><path d="m385.786 202.696c21.72-15.856 41.426-37.797 51.749-63.321-61.812 7.608-85.096-40.864-81.516-72.418-8.435 9.148-13.592 21.364-13.592 34.788 0 26.87 18.925 46.418 13.68 82.948-2.362 16.442 16.263 27.797 29.679 18.003z" fill="#a2ddfd"/><path d="m201.009 62.276c1.465 40.039 28.335 74.94 59.262 97.517 13.416 9.794 32.041-1.561 29.68-18.003-5.246-36.53 13.68-56.078 13.68-82.948 0-28.378-23.024-51.379-51.411-51.342-29.442.039-52.287 25.354-51.211 54.776z" fill="#cde9fa"/><path d="m260.271 159.793c13.416 9.794 32.041-1.561 29.68-18.003-3.659-25.483 4.44-42.702 9.676-59.908-68.523 11.816-92.989-36.452-84.979-57.418-8.932 9.956-14.166 23.386-13.638 37.812 1.464 40.039 28.335 74.94 59.261 97.517z" fill="#a2ddfd"/><path d="m471.225 283.829h-430.45l25.215 146.372c7.396 42.931 44.63 74.299 88.193 74.299h203.633c43.563 0 80.798-31.369 88.193-74.299z" fill="#e7c7af"/><path d="m48.974 331.423c56.606 11.241 139.465 21.404 207.026 21.404s150.42-10.163 207.026-21.404l8.199-47.594h-430.45z" fill="#e0b799"/><path d="m256 317.828c-73.855 0-166.624-12.572-220.093-24.991-16.953-3.938-27.504-20.873-23.566-37.826 3.937-16.952 20.871-27.509 37.826-23.566 48.749 11.322 137.455 23.356 205.833 23.356s157.084-12.034 205.833-23.357c16.951-3.942 33.888 6.613 37.826 23.566s-6.613 33.888-23.566 37.826c-53.469 12.419-146.238 24.992-220.093 24.992z" fill="#b0da87"/><path d="m288.797 289.034c8.676-8.676 15.497-21.338 19.889-36.191-18.187 1.243-36.039 1.957-52.686 1.957-68.378 0-157.084-12.034-205.833-23.357-2.499-.581-4.997-.839-7.453-.816-1.348 24.265 6.384 48.87 22.431 68.276 54.166 10.137 129.116 18.923 190.855 18.923 1.13 0 2.265-.003 3.404-.009 3.645-4.488 6.637-9.213 9.003-14.277 7.419-3.465 14.122-8.237 20.39-14.506z" fill="#89d47f"/><path d="m93.515 285.458c-26.99-25.968-28.279-69.336-1.798-95.823 9.467-9.469 21.078-15.485 33.271-18.051 5.761-1.213 10.248-5.699 11.461-11.461 2.566-12.193 8.582-23.804 18.051-33.271 26.487-26.481 69.854-25.192 95.822 1.798 49.131 51.063 35.589 120.843 17.261 139.171-4.934 4.934-9.436 7.656-14.042 9.472-5.221 2.059-9.324 6.163-11.384 11.383-1.817 4.606-4.539 9.108-9.472 14.042-18.327 18.329-88.107 31.871-139.17-17.26z" fill="#e7889d"/><path d="m240.629 292.072c-109.289-22.316-119.078-91.08-110.774-122.463-1.466.925-3.105 1.605-4.866 1.976-12.193 2.566-23.804 8.582-33.271 18.051-26.481 26.487-25.192 69.854 1.798 95.823 51.063 49.131 120.843 35.589 139.171 17.261 3.717-3.719 6.177-7.191 7.942-10.648z" fill="#e16e7e"/></g><g><g><ellipse cx="176.355" cy="407.637" fill="#fff" rx="29.387" ry="23.403"/><ellipse cx="335.645" cy="407.637" fill="#fff" rx="29.387" ry="23.403"/><path d="m279.694 389.656c0-14.643-10.608-16.019-23.694-16.019-13.085 0-23.693 1.376-23.693 16.019s10.608 26.513 23.693 26.513c13.086 0 23.694-11.871 23.694-26.513z" fill="#565e75"/></g></g><path d="m73.677 454.078c14.649 30.191 45.53 50.422 80.506 50.422h203.633c34.976 0 65.858-20.231 80.507-50.422z" fill="#e0b799"/><path d="m348.682 183.627c-3.31 23.054 22.767 38.82 41.526 25.127 38.234-27.912 60.954-65.564 62.335-103.301.331-9.06-1.283-17.864-4.798-26.173-1.614-3.814-6.015-5.597-9.829-3.984-3.815 1.614-5.599 6.015-3.985 9.83 2.654 6.272 3.873 12.928 3.622 19.778-.573 15.667-7.195 55.968-56.189 91.734-8.024 5.863-19.264-.912-17.834-10.879 5.519-38.434-13.603-59.169-13.603-84.015 0-24.206 19.586-43.842 43.842-43.842h.059c6.689.009 13.089 1.523 19.021 4.502 3.702 1.857 8.208.364 10.068-3.338 1.858-3.702.364-8.21-3.337-10.068-8.034-4.032-16.691-6.084-25.732-6.096-.027 0-.052 0-.079 0-32.49 0-58.842 26.289-58.842 58.842-.001 28.781 18.708 47.391 13.755 81.883zm-167.414 176.57c-4.142 0-7.5 3.357-7.5 7.5v12c0 4.143 3.358 7.5 7.5 7.5s7.5-3.357 7.5-7.5v-12c0-4.142-3.358-7.5-7.5-7.5zm54.586 9.269c-5.04 2.557-11.047 8.134-11.047 20.191 0 18.755 13.993 34.013 31.193 34.013s31.193-15.258 31.193-34.013c0-12.057-6.008-17.634-11.047-20.191-5.449-2.763-11.994-3.329-20.146-3.329s-14.697.566-20.146 3.329zm36.339 20.19c0 10.483-7.264 19.013-16.193 19.013s-16.193-8.529-16.193-19.013c0-5.907.655-8.52 16.193-8.52 15.539.001 16.193 2.613 16.193 8.52zm234.771-136.342c-4.877-21.002-25.824-34.059-46.828-29.176-40.027 9.297-110.745 19.621-173.11 22.421 7.012-23.73 6.549-52.284-3.37-78.823 9.744-5.231 15.346-15.684 13.719-27.014-4.952-34.484 13.756-53.127 13.756-81.882-.001-32.488-26.288-58.84-58.842-58.84-.026 0-.053 0-.079 0-34.012.044-59.914 29.225-58.695 62.55.462 12.649 3.289 25.26 8.419 37.64-32.798-.357-59.929 20.264-70.103 48.784-6.01-14.373-9.479-33.241-5.668-50.867.876-4.048-1.697-8.04-5.745-8.915-4.045-.878-8.04 1.696-8.916 5.745-5.439 25.149 1.257 51.72 11.16 69.487-29.61 6.571-53.203 30.965-57.047 62.706-4.873-.998-9.477-1.999-13.748-2.991-21-4.885-41.951 8.166-46.83 29.174-4.878 21.002 8.168 41.949 29.175 46.828.601.14 1.227.278 1.836.418l22.552 130.915c6.854 39.784 38.171 71.705 78.225 78.969 4.049.734 7.974-1.94 8.718-6.042.739-4.075-1.966-7.978-6.042-8.718-21.792-3.952-40.588-16.56-52.739-34.107h338.58c-14.889 21.626-39.747 35.424-67.526 35.424h-183.843c-4.142 0-7.5 3.357-7.5 7.5s3.358 7.5 7.5 7.5h183.843c47.347 0 87.546-33.866 95.585-80.525l22.552-130.911c.615-.141 1.231-.281 1.837-.422 21.001-4.878 34.054-25.822 29.174-46.828zm-254.735-238.314h.059c24.207 0 43.842 19.586 43.842 43.842 0 24.892-19.127 45.546-13.604 84.015.672 4.683-1.39 8.693-4.978 11.082-5.69-11.049-13.005-21.326-21.821-30.489-9.876-10.264-22.533-17.487-36.207-20.946-6.814-13.323-10.52-26.934-11.017-40.503-.908-24.863 18.251-46.967 43.726-47.001zm-155.208 179.939c8.121-8.122 18.326-13.66 29.511-16.015 8.659-1.822 15.433-8.595 17.256-17.255 2.354-11.186 7.892-21.392 16.015-29.513 23.405-23.4 61.899-22.436 85.115 1.694 20.435 21.239 31.319 47.876 31.833 76.794.429 24.126-6.955 44.357-14.471 51.873-3.73 3.73-7.274 6.136-11.489 7.799-7.114 2.806-12.803 8.494-15.61 15.609-1.662 4.215-4.067 7.759-7.798 11.489-7.517 7.517-27.747 14.901-51.873 14.472-28.127-.5-55.009-10.872-76.795-31.833-23.878-22.974-25.286-61.517-1.694-85.114zm-77.374 61.768c3.001-12.923 15.893-20.968 28.823-17.957 5.189 1.205 10.84 2.42 16.855 3.627 1.513 18.275 9.708 35.707 22.99 48.485 1.965 1.89 3.984 3.705 6.048 5.456-21.037-3.326-40.523-7.017-56.758-10.788-12.927-3.002-20.962-15.892-17.958-28.823zm418.972 172.221c-1.063 6.171-2.792 12.077-5.105 17.649h-354.978c-2.346-5.599-4.097-11.507-5.155-17.649l-21.528-124.972c21.803 4.415 47.315 8.578 73.791 12.008 26.333 11.646 55.047 13.61 80.037 7.718 17.879 1.09 34.808 1.645 50.319 1.645 66.843 0 149.055-10.22 204.147-21.37zm35.777-143.398c-64.061 14.883-164.048 26.598-238.591 24.496 5.246-4.447 10.353-11.047 13.33-18.598 1.306-3.311 3.849-5.853 7.16-7.158 6.137-2.422 11.409-5.963 16.592-11.146 2.974-2.974 5.679-6.814 8.055-11.306 67.719-2.452 141.694-13.57 182.59-23.07 12.928-3.003 25.818 5.028 28.821 17.959 3.004 12.927-5.028 25.82-17.957 28.823zm-143.664 101.667c4.142 0 7.5-3.357 7.5-7.5v-12c0-4.143-3.358-7.5-7.5-7.5s-7.5 3.357-7.5 7.5v12c0 4.143 3.358 7.5 7.5 7.5z"/></g></svg>