<svg id="Capa_1" enable-background="new 0 0 512 512" height="512" viewBox="0 0 512 512" width="512" xmlns="http://www.w3.org/2000/svg"><g><ellipse cx="445.667" cy="69.921" fill="#fbf1cf" rx="54.401" ry="54.401" transform="matrix(.23 -.973 .973 .23 275.223 487.601)"/><path d="m407.956 68.496c-6.085 0-11.764 1.729-16.582 4.716 1.391 23.287 17.426 42.617 39.025 48.923 5.609-5.69 9.074-13.5 9.074-22.121 0-17.407-14.111-31.518-31.517-31.518z" fill="#fae0bd"/><path d="m494.986 46.96c-5.596-11.999-15.436-21.614-27.596-26.918-9.369 2.626-16.242 11.223-16.242 21.431 0 12.294 9.966 22.261 22.261 22.261 10.4 0 19.133-7.133 21.577-16.774z" fill="#fae0bd"/><path d="m458.661 433.751c-5.349-15.547-1.152-38.772 4.807-56.033 3.036-8.793-5.715-17.194-14.292-13.595-26.744 11.224-48.281 39.423-55.809 69.627h65.294z" fill="#a09cdc"/><path d="m44.294 317.186c-13.37-8.069-17.668-25.447-9.599-38.818 14.497-24.023 44.664-74.011 92.692-80.46 27.751-3.729 55.471 7.369 82.371 32.982 11.31 10.768 11.749 28.665.981 39.975-10.769 11.31-28.667 11.747-39.975.981-13.868-13.205-25.932-19.227-35.852-17.892-21.149 2.841-42.628 38.433-51.801 53.632-8.012 13.278-25.358 17.722-38.817 9.6z" fill="#e0b799"/><path d="m467.706 317.186c13.37-8.069 17.668-25.447 9.599-38.818-14.497-24.023-44.664-74.011-92.692-80.46-27.751-3.729-55.47 7.369-82.371 32.982-11.31 10.768-11.749 28.665-.981 39.975 10.769 11.31 28.667 11.747 39.975.981 13.868-13.205 25.932-19.227 35.852-17.892 21.149 2.841 42.628 38.433 51.802 53.632 8.011 13.278 25.357 17.722 38.816 9.6z" fill="#e0b799"/><path d="m301.26 270.866c10.769 11.31 28.667 11.747 39.975.982 13.869-13.205 25.932-19.227 35.852-17.892 4.252.571 8.515 2.482 12.691 5.268-.971-10.039-1.482-20.2-1.482-30.33 0-14.161 1.426-23.762 2.97-29.795-2.179-.488-4.396-.887-6.654-1.191-27.751-3.729-55.47 7.369-82.371 32.982-11.309 10.768-11.749 28.666-.981 39.976z" fill="#d99a84"/><path d="m134.913 253.955c9.92-1.335 21.983 4.687 35.852 17.892 11.309 10.765 29.206 10.328 39.975-.982 10.768-11.31 10.328-29.207-.982-39.975-26.9-25.613-54.62-36.711-82.371-32.982-2.257.303-4.475.703-6.654 1.191 1.544 6.033 2.97 15.633 2.97 29.794 0 10.13-.512 20.291-1.482 30.33 4.177-2.786 8.44-4.697 12.692-5.268z" fill="#d99a84"/><path d="m358.296 228.894c0 70.263 22.55 147.415 61.318 182.18-34.189 0-282.6 0-327.227 0 38.767-34.765 61.317-111.917 61.317-182.18 0-20.417-2.639-47.277-15.211-59.296-16.177-15.461-53.342-9.447-87.544-9.053-.111.001-.223.002-.335.002-15.463 0-28.087-12.443-28.266-27.948-.182-15.615 12.329-28.42 27.945-28.601 38.347-.444 91.405-9.566 127.275 24.721 7.898 7.549 14.33 16.622 19.341 27.286-6.532-33.112-19.56-67.774-45.49-99.28-9.923-12.058-8.193-29.877 3.865-39.8 12.055-9.923 29.875-8.194 39.8 3.865 39.543 48.047 55.037 100.847 61.075 147.273 3.287-21.583 9.675-39.536 15.437-55.69 7.787-21.832 13.413-37.607 9.794-56.726-2.905-15.343 7.179-30.136 22.522-33.041 15.376-2.894 30.138 7.179 33.041 22.522 6.473 34.189-2.966 60.652-12.094 86.243-2.06 5.775-4.096 11.494-5.963 17.308 4.341-7.558 9.511-14.203 15.534-19.961 36.037-34.448 89.987-25.154 127.275-24.721 15.616.181 28.127 12.986 27.945 28.601-.179 15.452-12.803 28.108-28.601 27.945-34.422-.396-71.393-6.383-87.544 9.053-12.57 12.02-15.209 38.88-15.209 59.298z" fill="#e7c7af"/><g><g><ellipse cx="175.192" cy="345.907" fill="#fff" rx="29.816" ry="23.744"/><ellipse cx="336.807" cy="345.907" fill="#fff" rx="29.817" ry="23.744"/><path d="m290.853 330.773c0-15.073-15.604-16.489-34.853-16.489s-34.853 1.416-34.853 16.489c0 15.072 15.604 27.291 34.853 27.291s34.853-12.219 34.853-27.291z" fill="#565e75"/></g></g><path d="m453.008 411.074h-322.145c-3.946-16.562-17.628-34.726-30.478-45.169-5.074-4.123-12.666-.79-12.998 5.74-.595 11.719-3.082 26.443-10.499 39.429h-17.896c-28.438 0-51.492 23.054-51.492 51.492v12.902c0 14.39 11.666 26.056 26.056 26.056h444.888c14.39 0 26.056-11.666 26.056-26.056v-12.902c0-28.438-23.054-51.492-51.492-51.492z" fill="#c0ade2"/><path d="m171.972 411.074h-41.109c-3.946-16.562-17.628-34.726-30.478-45.169-5.074-4.123-12.666-.79-12.998 5.74-.595 11.719-3.082 26.443-10.499 39.429h-17.896c-28.438 0-51.492 23.054-51.492 51.492v12.902c0 14.39 11.666 26.056 26.056 26.056h161.902c-24.225-17.216-34.414-63.978-23.486-90.45z" fill="#a09cdc"/><path d="m464.612 404.726c1.085-7.902 3.127-16.396 5.945-24.561 5.163-14.962-9.767-29.051-24.285-22.958-13.982 5.868-27.146 16.269-37.858 29.724-20.959-29.673-36.041-75.417-40.922-124.265 3.195-1.176 6.08-1.618 8.596-1.277 17.579 2.361 39.25 38.263 46.378 50.073 10.101 16.737 32.006 22.474 49.114 12.145 16.929-10.214 22.361-32.182 12.146-49.113-15.1-25.022-46.519-77.091-98.115-84.019-5.001-.672-10.044-.886-15.082-.673 2.08-6.581 4.818-11.587 8.16-14.783 13.785-13.175 53.745-6.974 82.659-6.974 28.939-.003 45.604-32.553 29.583-55.934 10.642-11.403 16.637-26.405 16.637-42.191 0-34.133-27.769-61.901-61.901-61.901s-61.901 27.769-61.901 61.901c0 9.358 2.067 18.379 6.021 26.625-18.058 2.288-35.929 7.66-51.633 19.255 6.79-21.199 11.484-44 6.171-72.066-3.663-19.363-22.418-32.147-41.805-28.497-19.425 3.677-32.176 22.373-28.497 41.804 4.353 22.999-6.528 41.44-16.859 74.405-10.383-44.201-28.95-82.205-56.287-115.423-12.561-15.259-35.09-17.457-50.357-4.889-15.231 12.535-17.426 35.125-4.891 50.356 14.354 17.44 25.442 36.782 33.492 58.515-29.134-25.043-67.056-25.854-100.562-24.558-4.139.159-7.365 3.644-7.205 7.782.159 4.139 3.633 7.38 7.782 7.206 33.296-1.282 67.921-.508 93.25 23.703 7.183 6.866 13.15 15.296 17.736 25.056 1.611 3.427 5.526 5.116 9.127 3.936 3.599-1.181 5.753-4.861 5.02-8.577-7.93-40.196-23.322-73.755-47.058-102.594-7.279-8.846-6.005-21.964 2.841-29.244 8.882-7.313 21.959-6.01 29.242 2.84 32.582 39.59 52.021 86.521 59.429 143.476.482 3.705 3.619 6.491 7.355 6.532h.083c3.701 0 6.854-2.703 7.413-6.37 7.697-50.523 32.109-78.358 25.187-114.942-2.134-11.271 5.261-22.138 16.541-24.274 11.253-2.116 22.156 5.303 24.284 16.548 7.461 39.412-7.768 68.543-17.829 99.861-1.174 3.653.6 7.604 4.109 9.154 3.51 1.549 7.624.204 9.535-3.125 30.522-53.143 93.005-41.414 136.218-40.918 11.479.133 20.668 9.53 20.532 21.015-.127 11.041-9.031 20.533-21.015 20.533-35.748-.416-73.94-6.908-92.813 11.132-11.631 11.118-17.528 32.893-17.528 64.717 0 56.884 15.424 130.782 51.392 174.68h-265.713c-2.639-7.658-6.797-15.199-11.636-22.064 22.505-39.423 36.367-97.296 36.367-152.616 0-31.823-5.898-53.598-17.528-64.718-15.083-14.416-42.367-13.181-71.252-11.869-17.791.806-19.953.687-21.809.74-11.32 0-20.636-9.212-20.767-20.536-.11-9.534 6.237-17.893 15.438-20.325 4.005-1.06 6.393-5.164 5.334-9.168-1.06-4.005-5.171-6.391-9.168-5.334-15.855 4.192-26.795 18.586-26.603 35.002.226 19.498 14.48 35.543 36.187 35.357 30.995-.355 68.863-5.841 82.275 6.976 3.342 3.195 6.079 8.201 8.16 14.781-5.039-.217-10.081.003-15.08.675-51.598 6.928-83.017 58.996-98.115 84.019-10.217 16.927-4.788 38.897 12.144 49.113 17.101 10.323 39.008 4.602 49.121-12.157 7.121-11.798 28.792-47.699 46.374-50.061 2.505-.335 5.376.102 8.557 1.266-3.97 39.323-14.601 77.499-29.87 106.326-3.17-3.367-6.388-6.376-9.486-8.895-9.832-7.993-24.578-1.471-25.219 11.18-.443 8.733-2.145 21.043-7.542 32.309h-13.364c-32.528-.002-58.992 26.462-58.992 58.992v12.902c0 18.503 15.054 33.556 33.557 33.556h363.415c4.143 0 7.5-3.357 7.5-7.5s-3.357-7.5-7.5-7.5h-363.415c-10.233 0-18.557-8.325-18.557-18.556v-12.902c0-24.258 19.734-43.993 43.992-43.993h17.896c2.691 0 5.178-1.442 6.513-3.78 6.777-11.865 10.639-26.255 11.477-42.768.007-.141.014-.274.252-.38.271-.121.419-.005.525.081 10.824 8.796 24.176 25.405 27.912 41.086.805 3.378 3.823 5.762 7.296 5.762h322.146c24.258 0 43.992 19.735 43.992 43.993v12.902c0 10.232-8.324 18.556-18.557 18.556h-44.761c-4.143 0-7.5 3.357-7.5 7.5s3.357 7.5 7.5 7.5h44.761c18.503 0 33.557-15.053 33.557-33.556v-12.902c-.001-28.559-20.399-52.436-47.389-57.842zm2.397-376.548c8.402 4.313 15.347 11.078 19.863 19.357-2.343 5.226-7.568 8.699-13.463 8.699-8.139 0-14.761-6.622-14.761-14.762-.001-5.717 3.337-10.869 8.361-13.294zm-60.824 67.055c-3.476-5.393-5.773-11.361-6.8-17.646 14.001-5.353 29.27 3.303 32.13 17.757-8.206-.3-16.72-.449-25.33-.111zm73.894 6.523c-5.449-3.353-11.722-5.181-18.286-5.257-4.723-.055-9.754-.258-15.024-.495-2.337-22.793-24.158-39.222-47.31-34.061 4.052-23.539 25.632-40.989 50.503-38.719-3.979 5.098-6.313 11.471-6.313 18.248 0 25.141 29.33 38.814 48.597 23.02 1.6 13.829-2.95 27.313-12.167 37.264zm-113.769 145.604c-.748-13.589-.897-28.827.948-42.31 5.458-.531 10.938-.436 16.356.293 44.468 5.97 73.376 53.878 87.27 76.901 5.931 9.828 2.779 22.588-7.053 28.521-9.848 5.941-22.599 2.761-28.529-7.066-16.075-26.633-35.444-54.252-57.214-57.176-3.75-.506-7.69-.206-11.778.837zm-232.395-.838c-21.772 2.925-41.142 30.544-57.225 57.19-5.883 9.751-18.614 13.029-28.521 7.053-9.83-5.932-12.987-18.688-7.052-28.521 13.893-23.023 42.801-70.932 87.27-76.901 5.416-.728 10.897-.824 16.355-.293 1.854 13.542 1.693 28.7.932 42.297-4.085-1.041-8.018-1.328-11.759-.825zm322.463 128.749c-3.232 9.361-5.544 19.169-6.735 28.303h-27.084c-1.523-1.456-3.025-2.989-4.504-4.602 9.515-12.823 21.433-22.649 34.022-27.932 2.59-1.09 5.233 1.536 4.301 4.231zm-227.531-65.463c-12.563 4.458-15.199 13.861-15.199 20.965 0 19.184 18.999 34.791 42.352 34.791s42.353-15.607 42.353-34.791c0-7.104-2.637-16.507-15.199-20.965-7.073-2.51-15.97-3.024-27.153-3.024s-20.081.514-27.154 3.024zm54.506 20.965c0 10.728-12.526 19.791-27.353 19.791s-27.352-9.063-27.352-19.791c0-5.093 2.014-8.989 27.352-8.989s27.353 3.896 27.353 8.989zm-78.023-144.499c-3.251-2.566-7.966-2.014-10.534 1.237-2.567 3.251-2.014 7.967 1.237 10.534 3.389 2.677 11.775 16.717 12.635 31.779.238 4.148 3.807 7.308 7.916 7.06 4.136-.235 7.296-3.779 7.061-7.915-1.011-17.685-10.286-36.355-18.315-42.695zm-29.528 104.533c-.72 4.08 2.004 7.97 6.083 8.689l21.124 3.725c4.063.719 7.967-1.992 8.688-6.083.72-4.08-2.004-7.97-6.083-8.689l-21.124-3.725c-4.083-.725-7.969 2.005-8.688 6.083zm9.267 20.148v12c0 4.143 3.357 7.5 7.5 7.5s7.5-3.357 7.5-7.5v-12c0-4.142-3.357-7.5-7.5-7.5-4.142 0-7.5 3.358-7.5 7.5zm126.862 0v12c0 4.143 3.357 7.5 7.5 7.5s7.5-3.357 7.5-7.5v-12c0-4.142-3.357-7.5-7.5-7.5s-7.5 3.358-7.5 7.5zm24.267-20.148c-.719-4.079-4.609-6.809-8.688-6.083l-21.124 3.725c-4.079.719-6.803 4.608-6.083 8.689.723 4.099 4.634 6.802 8.689 6.083l21.124-3.725c4.078-.719 6.802-4.609 6.082-8.689zm-33.842-88.145c-3.377-2.398-8.061-1.604-10.457 1.773-8.991 12.662-15.517 31.32-15.517 44.365 0 4.143 3.357 7.5 7.5 7.5s7.5-3.357 7.5-7.5c0-9.941 5.6-25.614 12.747-35.682 2.399-3.376 1.605-8.057-1.773-10.456z"/></g></svg>