<svg id="Capa_1" enable-background="new 0 0 512 512" height="512" viewBox="0 0 512 512" width="512" xmlns="http://www.w3.org/2000/svg"><g><ellipse cx="69.337" cy="216.865" fill="#ffcabd" rx="61.837" ry="57.677"/><ellipse cx="442.663" cy="216.865" fill="#ffcabd" rx="61.837" ry="57.677"/><path d="m399.147 487.176c21.044 0 36.898-19.483 32.237-40.004-18.188-80.073-89.806-139.845-175.384-139.845s-157.196 59.772-175.384 139.845c-4.661 20.521 11.193 40.004 32.237 40.004z" fill="#565e75"/><path d="m359.124 312.142-70.538 175.034h-65.173l-70.537-175.034z" fill="#fbf1cf"/><path d="m357.647 312.142h-203.297c-.347.37-.68.753-1.018 1.131l46.063 114.304c3.505.259 7.032.251 10.551-.034 12.784 10.778 28.978 16.771 46.053 16.771s33.269-5.992 46.053-16.77c3.566.289 7.09.287 10.554.028l46.061-114.297c-.339-.38-.673-.762-1.02-1.133z" fill="#f8d4a5"/><path d="m223.413 487.176c0-67.278-27.461-135.333-68.752-189.623l-59.781 18.955c-13.471 4.271-16.973 21.734-6.152 30.823 41.214 34.616 100.853 101.422 100.853 139.845z" fill="#e7889d"/><path d="m288.586 487.176c0-67.278 27.461-135.333 68.752-189.623l59.781 18.955c13.471 4.271 16.973 21.734 6.152 30.823-41.214 34.616-100.853 101.422-100.853 139.845z" fill="#e7889d"/><path d="m313.1 373.463c33.794-7.3 64.551-21.112 89.638-40.621 6.145-4.779 11.872-9.851 17.19-15.175-.883-.45-1.815-.844-2.809-1.159l-59.781-18.955c-17.622 23.171-32.713 48.855-44.238 75.91z" fill="#e16e7e"/><path d="m198.9 373.463c-11.525-27.055-26.616-52.739-44.239-75.91l-59.781 18.955c-.993.315-1.926.709-2.809 1.159 5.318 5.324 11.045 10.397 17.19 15.175 25.088 19.508 55.845 33.321 89.639 40.621z" fill="#e16e7e"/><path d="m312.785 320.584c-14.971-1.951-28.55 4.63-36.568 15.548-5.993-3.317-12.883-5.21-20.217-5.21s-14.224 1.894-20.217 5.21c-8.021-10.921-21.604-17.503-36.58-15.546-19.438 2.54-33.941 19.579-33.627 39.18.417 26.085 25.771 43.791 49.801 36.657 2.963-.88 6.147.19 8.09 2.593 7.666 9.482 19.39 15.546 32.533 15.546s24.867-6.064 32.533-15.546c1.943-2.403 5.127-3.473 8.09-2.593 24.051 7.142 49.401-10.594 49.802-36.682.302-19.596-14.206-36.624-33.64-39.157z" fill="#fbf1cf"/><path d="m312.785 320.584c-14.971-1.951-28.55 4.63-36.568 15.548-5.993-3.317-12.883-5.21-20.217-5.21s-14.224 1.894-20.217 5.21c-8.021-10.921-21.604-17.503-36.58-15.546-19.438 2.539-33.941 19.579-33.627 39.18.023 1.403.131 2.775.293 4.127 27.61 10.186 58.243 15.569 90.131 15.569s62.521-5.383 90.132-15.569c.163-1.359.272-2.741.293-4.151.302-19.597-14.206-36.624-33.64-39.158z" fill="#f8d4a5"/><path d="m437.691 204.308c0-86.259-81.346-156.185-181.691-156.185s-181.691 69.926-181.691 156.185 81.346 145.402 181.691 145.402 181.691-59.143 181.691-145.402z" fill="#ffdcce"/><g><path d="m271.513 227.047c-4.143 0-7.5-3.358-7.5-7.5v-16.46c0-4.142 3.357-7.5 7.5-7.5s7.5 3.358 7.5 7.5v16.46c0 4.142-3.358 7.5-7.5 7.5z" fill="#fff"/><path d="m240.487 227.047c-4.142 0-7.5-3.358-7.5-7.5v-16.46c0-4.142 3.358-7.5 7.5-7.5s7.5 3.358 7.5 7.5v16.46c0 4.142-3.358 7.5-7.5 7.5z" fill="#fff"/><g fill="#eda1ab"><ellipse cx="172.435" cy="224.322" rx="30.834" ry="24.555"/><ellipse cx="339.565" cy="224.322" rx="30.834" ry="24.555"/></g></g><path d="m256 24.824c169.709 0 219.204 84.393 195.893 181.295-1.52 6.32-7.225 10.746-13.725 10.746h-10.219c-8.737 0-15.343-7.847-13.934-16.47 21.113-129.292-114.142-120.355-150.946-82.73-3.877 3.964-10.259 3.964-14.136 0-36.805-37.625-172.061-46.562-150.947 82.73 1.408 8.623-5.197 16.47-13.935 16.47h-10.219c-6.5 0-12.205-4.426-13.726-10.746-23.31-96.903 26.185-181.295 195.894-181.295z" fill="#565e75"/><path d="m323.912 178.643c-11.804 0-21.406 9.603-21.406 21.406 0 4.142 3.357 7.5 7.5 7.5s7.5-3.358 7.5-7.5c0-3.532 2.874-6.406 6.406-6.406s6.406 2.874 6.406 6.406c0 4.142 3.357 7.5 7.5 7.5s7.5-3.358 7.5-7.5c0-11.803-9.602-21.406-21.406-21.406zm140.717-23.606c-2.704-54.938-34.009-98.241-94.937-120.582-31.002-11.367-69.253-17.131-113.692-17.131-54.77 0-99.866 8.714-134.035 25.9-3.7 1.861-5.191 6.37-3.33 10.07s6.369 5.191 10.07 3.33c32.059-16.124 74.887-24.3 127.295-24.3 161.465 0 211.423 77.171 188.601 172.041-.708 2.944-3.353 5-6.433 5-.101 0-1.241 0-1.14 0h-9.079c-4.099 0-7.199-3.682-6.532-7.761 7.152-43.806-1.563-85.693-40.867-105.564-40.07-20.26-98.571-8.433-122.843 16.381-.934.956-2.477.958-3.414 0-24.152-24.691-82.611-36.721-122.843-16.381-39.298 19.868-48.021 61.748-40.866 105.564.665 4.077-2.433 7.761-6.533 7.761-.218 0-10.34 0-10.219 0-3.08 0-5.725-2.056-6.434-5-11.81-49.096-4.842-95.949 32.51-128.628 3.118-2.728 3.434-7.466.706-10.583-2.728-3.118-7.467-3.434-10.583-.706-27.196 23.795-40.872 55.065-42.64 90.584-28.179 8.775-47.391 33.461-47.391 61.833 0 43.474 44.786 75.045 89.335 62.402 5.797 8.774 12.647 17.027 20.495 24.632l-17.217 5.459c-19.141 6.069-24.063 30.819-8.709 43.715 7.157 6.011 14.934 13.083 22.874 20.838-16.08 21.18-27.614 45.789-33.476 71.599-5.717 25.168 13.639 49.166 39.551 49.166h265.186c4.143 0 7.5-3.358 7.5-7.5s-3.357-7.5-7.5-7.5h-47.343c5.052-26.205 34.153-64.201 63.843-95.009 14.133 19.098 24.295 41.112 29.531 64.166 2.635 11.6-3.132 23.287-14.023 28.421-3.746 1.766-5.352 6.235-3.586 9.982 1.758 3.729 6.217 5.361 9.982 3.586 17.31-8.16 26.461-26.793 22.254-45.312-5.862-25.811-17.396-50.42-33.476-71.6 7.939-7.755 15.717-14.826 22.873-20.837 15.365-12.905 10.422-37.65-8.708-43.715l-17.217-5.459c7.848-7.605 14.698-15.858 20.495-24.632 44.644 12.669 89.336-19.007 89.336-62.402 0-28.364-19.202-53.046-47.371-61.828zm-449.629 61.828c0-20.206 12.93-38.02 32.382-45.909.567 11.87 2.372 24.195 5.433 36.917 1.881 7.816 7.85 13.727 15.342 15.739 2.071 14.772 6.576 28.937 13.31 42.155-34.15 7.235-66.467-16.888-66.467-48.902zm97.853 262.811c-16.315 0-28.501-15.093-24.924-30.843 5.237-23.053 15.398-45.067 29.532-64.165 29.689 30.808 58.791 68.803 63.842 95.009h-68.45zm83.624 0c-6.744-44.43-67.994-108.75-102.925-138.089-6.292-5.284-4.259-15.441 3.594-17.93l25.985-8.239c12.245 9.505 25.595 17.17 39.71 23.285-14.893 30.375 6.676 65.604 39.93 66.782 7.904 25.035 12.262 49.931 13.011 74.19h-19.305zm84.732 0h-50.419c-.719-24.719-4.984-50.018-12.709-75.424 19.758 23.764 56.111 23.726 75.837.001-7.726 25.407-11.99 50.705-12.709 75.423zm1.492-85.376c-13.771 17.032-39.659 16.999-53.402 0-3.895-4.819-10.198-6.809-16.057-5.068-19.428 5.766-39.833-8.607-40.169-29.586-.086-5.389 1.247-10.728 3.81-15.464 48.956 17.136 107.905 17.616 158.231 0 13.423 24.8-10.088 52.85-36.358 45.051-5.854-1.742-12.159.249-16.055 5.067zm132.152-70.643c7.861 2.492 9.878 12.653 3.595 17.93-34.787 29.218-96.181 93.65-102.926 138.089h-19.306c.749-24.259 5.107-49.155 13.012-74.191 32.367-1.146 55.23-35.581 39.931-66.782 14.076-6.099 27.432-13.755 39.71-23.285zm-39.712-16.69c-31.634 22.727-73.946 35.243-119.141 35.243s-87.507-12.516-119.14-35.243c-27.918-20.057-47.792-47.854-53.429-82.603.346-.074 9.86.882 17.078-7.61 4.13-4.859 5.908-11.262 4.879-17.568-7.22-44.212 4.133-75.251 32.83-89.76 34.161-17.27 85.566-6.746 105.353 13.484 6.883 7.036 18.102 6.906 24.859 0 19.787-20.23 71.194-30.754 105.353-13.484 28.697 14.509 40.05 45.548 32.83 89.76-2.156 13.205 7.999 25.179 21.337 25.179h.621c-5.16 31.799-22.815 60.607-53.43 82.602zm55.393-41.201c6.734-13.218 11.239-27.382 13.31-42.155 7.491-2.012 13.46-7.923 15.341-15.739 3.064-12.738 4.868-25.068 5.438-36.915 19.45 7.889 32.378 25.703 32.378 45.907-.001 32.038-32.347 56.132-66.467 48.902zm-152.312-71.11c-3.124-2.721-7.862-2.396-10.582.727-2.938 3.372-7.181 5.306-11.64 5.306s-8.701-1.934-11.64-5.306c-2.722-3.122-7.459-3.447-10.582-.727-3.122 2.722-3.448 7.459-.727 10.582 5.788 6.642 14.152 10.451 22.948 10.451s17.16-3.809 22.948-10.451c2.723-3.123 2.397-7.861-.725-10.582zm-87.817-13.773c-4.142 0-7.5 3.358-7.5 7.5v12c0 4.142 3.358 7.5 7.5 7.5s7.5-3.358 7.5-7.5v-12c0-4.142-3.358-7.5-7.5-7.5z"/></g></svg>