<svg id="Capa_1" enable-background="new 0 0 511.979 511.979" height="512" viewBox="0 0 511.979 511.979" width="512" xmlns="http://www.w3.org/2000/svg"><g><path d="m454.328 11.265-15.848 7.965c-6.913 3.474-15.062 3.474-21.975 0l-18.188-9.141c-6.913-3.474-15.062-3.474-21.975 0l-18.188 9.141c-6.913 3.474-15.062 3.474-21.975 0l-15.848-7.965c-6.116-3.074-13.327 1.372-13.327 8.218v64.094h160.649v-64.094c.002-6.845-7.209-11.292-13.325-8.218z" fill="#f6ee86"/><path d="m474.882 339.293h-175.103v-255.347c0-13.796 11.184-24.98 24.98-24.98h125.142c13.796 0 24.98 11.184 24.98 24.98v255.347z" fill="#b0da87"/><path d="m474.882 291.115c-22.774-10.544-45.901-13.446-64.992-14.052-4.384-43.019-26.274-83.768-57.099-114.591-16.004-16.004-34.008-29.035-53.011-38.657v215.478h175.103v-48.178z" fill="#89d47f"/><ellipse cx="387.33" cy="199.129" fill="#f6ee86" rx="51.838" ry="59.333"/><path d="m405.958 254.499c-8.485-34.554-27.794-66.655-53.168-92.027-1.189-1.189-2.389-2.359-3.599-3.515-8.502 10.569-13.698 24.674-13.698 40.172 0 32.769 23.209 59.333 51.838 59.333 6.567 0 12.844-1.413 18.627-3.963z" fill="#f2d98d"/><path d="m153.694 209.092c-45.892 4.401-96.547 7.278-133.009-29.184-32.858-32.858 22.846-74.637 67.557-75.468 7.049-.131 12.784-5.865 12.915-12.915.831-44.711 42.611-100.415 75.468-67.557 36.462 36.462 33.585 87.117 29.184 133.009z" fill="#f6b88e"/><path d="m306.17 361.568c-4.401 45.892-7.278 96.547 29.184 133.009 32.858 32.858 74.637-22.846 75.468-67.557.131-7.049 5.865-12.784 12.915-12.915 44.711-.831 100.414-42.611 67.557-75.468-36.462-36.462-87.117-33.585-133.009-29.184z" fill="#f6b88e"/><ellipse cx="255.989" cy="259.273" fill="#c0ade2" rx="106.898" ry="140.245" transform="matrix(.707 -.707 .707 .707 -108.356 256.951)"/><path d="m336.723 372.319c-154.095-32.641-172.365-173.214-134.539-235.795-17.298 3.375-32.945 11.164-45.363 23.581-41.746 41.746-31.189 119.987 23.58 174.756 47.493 47.493 112.631 61.731 156.322 37.458z" fill="#a09cdc"/><path d="m233.01 328.598c41.291-4.04 93.938-13.235 147.632-33.304.926-36.967-16.016-78.56-49.065-111.609-.442-.442-.889-.872-1.333-1.308-33.257 11.705-70.253 19.777-109.234 23.591-33.733 3.299-64.127 2.876-87.985.681-7.213 39.462 8.33 87.252 44.136 124.881 19.94-.182 39.039-1.287 55.849-2.932z" fill="#f6b88e"/><path d="m241.988 327.653c-38.831-33.658-55.424-78.756-56.57-119.466-19.543.527-37.282-.148-52.392-1.539-7.212 39.462 8.33 87.252 44.136 124.881 19.94-.182 39.039-1.287 55.848-2.931 2.934-.287 5.933-.603 8.978-.945z" fill="#eba188"/><g><g fill="#fff"><ellipse cx="180.573" cy="279.635" rx="28.919" ry="23.03"/><ellipse cx="337.327" cy="279.635" rx="28.919" ry="23.03"/></g></g><path d="m496.597 333.334c-4.553-4.553-9.309-8.509-14.216-11.971v-237.418c0-7.72-2.712-14.815-7.227-20.395v-44.067c0-12.414-13.076-20.503-24.195-14.919l-15.848 7.965c-4.771 2.398-10.467 2.398-15.239 0l-18.188-9.141c-8.988-4.518-19.72-4.517-28.71 0l-18.188 9.141c-4.771 2.398-10.468 2.398-15.238 0l-15.848-7.965c-11.114-5.584-24.194 2.502-24.194 14.919v44.067c-4.515 5.58-7.227 12.675-7.227 20.396v61.33c-23.803-12.563-50.626-19.538-76.73-18.002 1.594-36.891-2.397-77.386-33.621-108.609-11.807-11.806-26.243-15.105-40.65-9.297-25.175 10.155-46.983 47.714-47.621 82.017-.056 3.008-2.548 5.5-5.556 5.556-10.533.196-21.963 2.489-33.056 6.631-3.881 1.449-5.852 5.77-4.403 9.649 1.449 3.882 5.771 5.851 9.649 4.403 9.521-3.555 19.234-5.521 28.089-5.686 11.162-.208 20.067-9.113 20.274-20.274.52-27.928 18.744-60.522 38.235-68.385 8.841-3.568 16.833-1.606 24.432 5.992 16.032 16.032 31.886 40.474 29.113 99.912-6.887 1.36-13.478 3.368-19.713 6.007-2.255-13.104-6.566-31.123-14.649-47.401-1.842-3.709-6.342-5.223-10.053-3.382-3.71 1.843-5.224 6.344-3.382 10.054 8.333 16.782 12.277 35.909 14.076 48.106-10.648 6.835-20.099 16.011-27.429 27.429-12.199-1.798-31.326-5.743-48.106-14.075-3.71-1.845-8.211-.328-10.053 3.381-1.842 3.71-.329 8.211 3.381 10.053 16.275 8.083 34.295 12.394 47.4 14.649-2.641 6.238-4.65 12.832-6.01 19.722-34.274 1.719-72.028-1.242-99.909-29.124-5.232-5.231-7.824-10.798-7.705-16.545.152-7.356 4.782-15.59 13.036-23.187 3.048-2.805 3.245-7.55.44-10.598-2.804-3.047-7.55-3.244-10.597-.439-20.061 18.462-24.983 42.173-5.78 61.376 29.386 29.386 67.285 35.402 108.607 33.616-5.198 88.304 83.943 177.64 172.442 172.428-1.595 36.896 2.393 77.397 33.621 108.626 11.317 11.316 25.658 15.34 40.649 9.296 25.175-10.155 46.983-47.714 47.621-82.017.056-3.008 2.548-5.5 5.556-5.556 10.477-.195 21.848-2.467 32.883-6.567 3.882-1.443 5.86-5.76 4.417-9.643s-5.759-5.862-9.643-4.418c-9.469 3.52-19.13 5.466-27.936 5.63-11.162.207-20.067 9.113-20.274 20.274-.52 27.928-18.744 60.522-38.235 68.385-8.84 3.568-16.832 1.606-24.431-5.992-16.033-16.033-31.889-40.479-29.113-99.93 6.886-1.36 13.474-3.37 19.709-6.01 2.254 13.106 6.565 31.135 14.652 47.42 1.83 3.684 6.314 5.235 10.053 3.382 3.71-1.843 5.224-6.344 3.381-10.054-8.334-16.784-12.278-35.912-14.076-48.11 11.06-7.1 20.35-16.399 27.43-27.425 12.197 1.798 31.324 5.742 48.107 14.076 3.717 1.846 8.214.321 10.053-3.382 1.842-3.71.328-8.211-3.382-10.054-16.277-8.082-34.295-12.393-47.399-14.648 2.641-6.238 4.65-12.832 6.01-19.723 34.273-1.72 72.028 1.244 99.909 29.123 5.281 5.281 7.872 10.904 7.701 16.712-.223 7.584-5.156 16.035-13.89 23.797-3.096 2.752-3.376 7.492-.624 10.589 2.743 3.086 7.482 3.383 10.588.624 21.008-18.666 26.311-42.841 6.83-62.324zm-182.091-313.851c0-1.272 1.326-2.088 2.459-1.517l15.848 7.965c8.989 4.517 19.721 4.519 28.711 0l18.187-9.141c4.772-2.396 10.469-2.396 15.24 0l18.188 9.141c8.988 4.517 19.722 4.519 28.711 0l15.847-7.965c1.143-.57 2.46.249 2.46 1.517v33.65c-3.226-1.076-6.671-1.668-10.253-1.668h-125.145c-3.583 0-7.028.592-10.253 1.668zm1.263 159.823c-55.302 17.548-118.665 24.352-173.521 20.559 18.887-67.328 106.102-77.939 173.521-20.559zm-42.103 196.105c-27.478-3.708-54.841-16.649-78.229-36.813 59.005-2.18 119.963-12.503 176.841-32.327-6.25 45.975-44.616 76.422-98.612 69.14zm-93.295-51.43c-27.53-29.986-45.229-70.63-40.975-109.282 59.267 4.361 128.568-3.262 188.844-23.707 25.626 26.439 44.146 62.472 44.939 99.036-60.85 22.041-127.564 33.017-192.808 33.953zm164.014-137.663c4.952-22.809 22.547-39.022 42.945-39.022 24.448 0 44.338 23.252 44.338 51.833 0 30.456-22.948 55.619-50.168 51.357-7.167-22.84-19.86-44.862-37.115-64.168zm122.996 126.201c-25.212-12.239-53.206-13.936-79.391-12.806.636-10.807-.168-22.084-2.517-33.787 34.177 1.226 61.195-29.985 61.195-66.798 0-36.852-26.619-66.833-59.338-66.833-24.616 0-46.103 16.892-54.99 41.698-7.909-7.414-16.308-14.046-25.062-19.827v-70.221c0-9.639 7.842-17.48 17.48-17.48h125.142c9.639 0 17.48 7.842 17.48 17.48v228.574zm-146.909-79.21c-11.726 0-21.265 9.539-21.265 21.265 0 4.143 3.358 7.5 7.5 7.5s7.5-3.357 7.5-7.5c0-3.454 2.811-6.265 6.265-6.265 3.455 0 6.265 2.811 6.265 6.265 0 4.143 3.358 7.5 7.5 7.5s7.5-3.357 7.5-7.5c0-11.726-9.539-21.265-21.265-21.265zm-41.993 31.699c-3.122-2.721-7.86-2.396-10.582.727-2.259 2.593-5.52 4.08-8.947 4.08s-6.688-1.487-8.947-4.08c-2.721-3.122-7.459-3.447-10.582-.727-3.123 2.721-3.448 7.459-.727 10.582 5.109 5.862 12.492 9.225 20.256 9.225s15.146-3.362 20.255-9.225c2.722-3.123 2.397-7.861-.726-10.582zm-81.052-31.699c-11.726 0-21.265 9.539-21.265 21.265 0 4.143 3.358 7.5 7.5 7.5s7.5-3.357 7.5-7.5c0-3.454 2.811-6.265 6.265-6.265 3.455 0 6.265 2.811 6.265 6.265 0 4.143 3.358 7.5 7.5 7.5s7.5-3.357 7.5-7.5c0-11.726-9.539-21.265-21.265-21.265z"/></g></svg>