<svg id="Capa_1" enable-background="new 0 0 512.016 512.016" height="512" viewBox="0 0 512.016 512.016" width="512" xmlns="http://www.w3.org/2000/svg"><g><path d="m379.324 121.785c0-25.315-20.522-45.837-45.837-45.837s-45.837 20.522-45.837 45.837c0 46.501 38.002 82.208-37.478 119.824l55.387 9.439c59.788-30.835 73.765-90.734 73.765-129.263z" fill="#f6ee86"/><path d="m373.927 163.9c-81.246 4.747-72.559-65.421-64.599-81.065-13.01 8.087-21.677 22.503-21.677 38.95 0 46.501 38.002 82.208-37.478 119.824l55.387 9.439c40.564-20.921 60.036-55.22 68.367-87.148z" fill="#f2d98d"/><path d="m160.172 303.225c-17.297 0-46.981-13.338-65.668-30.359-7.063-6.433-17.466-7.745-25.725-2.944-24.908 14.481-50.45 40.037-60.671 72.981-2.977 9.594 5.597 18.687 15.41 16.537 17.123-3.752 39.238-.86 54.026 11.539 4.629 3.881 11.261 3.984 16.158.449 22.441-16.201 59.208-15.042 74.444 7.825z" fill="#565e75"/><path d="m351.845 303.225c17.297 0 46.981-13.338 65.668-30.359 7.063-6.433 17.466-7.745 25.725-2.944 24.908 14.481 50.45 40.037 60.671 72.981 2.977 9.594-5.598 18.687-15.41 16.537-17.123-3.752-39.237-.86-54.026 11.539-4.629 3.881-11.261 3.984-16.159.449-22.441-16.201-59.208-15.042-74.444 7.825z" fill="#565e75"/><path d="m399.37 362.603 7.155-80.991c-17.955 12.628-40.487 21.613-54.68 21.613l-7.975 76.027c11.429-17.153 34.975-22.091 55.5-16.649z" fill="#404656"/><path d="m105.492 281.612 7.155 80.991c20.525-5.442 44.07-.504 55.5 16.65l-7.975-76.027c-14.194-.001-36.725-8.986-54.68-21.614z" fill="#404656"/><path d="m383.615 200.036h-255.214l20.088 227.373c1.568 17.747 16.433 31.356 34.249 31.356h146.54c17.816 0 32.681-13.609 34.249-31.356z" fill="#e7889d"/><path d="m147.15 412.243 1.34 15.165c1.568 17.747 16.433 31.356 34.249 31.356h146.541c17.816 0 32.681-13.609 34.249-31.356l1.34-15.165z" fill="#e16e7e"/><path d="m378.58 257.03 5.035-56.994h-255.214l5.035 56.994c24.983 3.102 68.849 7.324 122.572 7.324 53.722 0 97.587-4.221 122.572-7.324z" fill="#e16e7e"/><path d="m256.008 233.267c-64.63 0-114.34-6.272-132.713-8.968-13.4-1.967-22.669-14.424-20.703-27.825s14.419-22.67 27.825-20.703c36.044 5.29 82.994 8.448 125.59 8.448s89.546-3.158 125.59-8.448c13.401-1.966 25.859 7.303 27.825 20.703 1.967 13.401-7.303 25.858-20.703 27.825-18.371 2.697-68.081 8.968-132.711 8.968z" fill="#565e75"/><ellipse cx="222.485" cy="89.649" fill="#f2d98d" rx="34.441" ry="36.397"/><g><g><ellipse cx="175.201" cy="341.118" fill="#fff" rx="29.816" ry="23.744"/><ellipse cx="336.816" cy="341.118" fill="#fff" rx="29.816" ry="23.744"/><path d="m290.861 325.984c0-15.073-15.604-16.489-34.853-16.489s-34.853 1.416-34.853 16.489c0 15.072 15.604 27.291 34.853 27.291s34.853-12.219 34.853-27.291z" fill="#565e75"/></g></g><path d="m192.578 298.667c-4.142 0-7.5 3.358-7.5 7.5v12c0 4.142 3.358 7.5 7.5 7.5s7.5-3.358 7.5-7.5v-12c0-4.142-3.358-7.5-7.5-7.5zm13.045-15.008-21.125-3.725c-4.075-.716-7.969 2.004-8.688 6.084-.719 4.079 2.005 7.969 6.084 8.688l21.124 3.725c4.079.719 7.969-2.005 8.688-6.084.72-4.078-2.004-7.969-6.083-8.688zm16.862-150.113c23.126 0 41.94-19.692 41.94-43.898s-18.814-43.897-41.94-43.897c-23.127 0-41.941 19.692-41.941 43.897s18.814 43.898 41.941 43.898zm0-72.795c14.855 0 26.94 12.963 26.94 28.897s-12.086 28.897-26.94 28.897c-14.855 0-26.941-12.963-26.941-28.897s12.085-28.897 26.941-28.897zm6.37 244.268c-12.563 4.458-15.2 13.861-15.2 20.965 0 19.184 18.999 34.791 42.353 34.791 23.353 0 42.352-15.607 42.352-34.791 0-7.104-2.637-16.507-15.2-20.965-7.073-2.51-15.97-3.024-27.153-3.024-11.182 0-20.079.514-27.152 3.024zm54.506 20.965c0 10.728-12.526 19.791-27.352 19.791-14.827 0-27.353-9.063-27.353-19.791 0-5.093 2.014-8.989 27.353-8.989 25.338 0 27.352 3.896 27.352 8.989zm227.711 14.697c-9.48-30.556-33.429-59.432-64.065-77.243-11.055-6.428-24.938-4.867-34.544 3.883-7.844 7.145-18.167 13.918-28.952 19.125l4.816-54.511c.51-.074 1.014-.146 1.484-.215 17.471-2.564 29.599-18.864 27.035-36.335-2.563-17.47-18.865-29.605-36.334-27.034-.008.001-.017.002-.025.004 5.131-18.439 6.339-35.08 6.339-46.57 0-6.372-1.114-12.608-3.311-18.536-1.44-3.884-5.757-5.866-9.639-4.426-3.884 1.44-5.866 5.755-4.426 9.639 1.577 4.254 2.376 8.737 2.376 13.323 0 11.78-1.378 29.469-7.647 48.727-18.595 2.219-39.191 3.912-60.101 4.965-2.134-17.459-8.925-34.909-8.925-53.692 0-28.04 29.202-46.473 54.405-34.819 3.759 1.74 8.217.1 9.955-3.659 1.739-3.759.101-8.217-3.659-9.955-35.062-16.217-75.701 9.411-75.701 48.434 0 20.448 6.647 37.97 8.875 54.336-11.118.392-22.208.598-33.017.598-42.253 0-88.795-3.128-124.502-8.368-17.518-2.568-33.765 9.519-36.334 27.034-2.564 17.471 9.563 33.77 27.035 36.335.47.069.974.142 1.484.215l4.816 54.511c-10.785-5.207-21.108-11.979-28.952-19.124-9.607-8.75-23.489-10.311-34.544-3.884-30.636 17.811-54.585 46.687-64.065 77.243-4.672 15.058 8.711 29.473 24.178 26.085 14.096-3.088 34.283-1.208 47.603 9.96 7.208 6.043 17.639 6.361 25.367.782 10.341-7.466 24.633-10.795 37.661-9.025 1.859 21.04 3.438 38.909 5.264 59.586 1.392 15.751 11.364 29.22 26.023 35.15 3.831 1.551 8.209-.293 9.765-4.14 1.553-3.84-.3-8.212-4.14-9.765-9.412-3.807-15.813-12.454-16.707-22.565l-.619-7.005h201.334l-.619 7.005c-1.235 13.977-12.747 24.516-26.778 24.516h-123.255c-4.142 0-7.5 3.358-7.5 7.5s3.358 7.5 7.5 7.5h123.253c21.86 0 39.796-16.421 41.719-38.196 1.147-12.986 3.512-39.746 5.264-59.587 13.028-1.772 27.32 1.56 37.661 9.026 7.718 5.572 18.151 5.268 25.367-.783 13.319-11.167 33.505-13.049 47.603-9.96 15.465 3.39 28.851-11.027 24.179-26.085zm-421.76 24.665c-2.156 1.557-5.014 1.509-6.95-.115-15.143-12.697-38.872-17.846-60.45-13.118-4.236.931-7.902-2.923-6.642-6.988 8.395-27.059 29.808-52.749 57.278-68.72 5.368-3.121 12.161-2.316 16.905 2.005 10.804 9.841 25.693 19.021 40.562 25.114l4.393 49.719c-15.873-1.352-32.435 2.963-45.096 12.103zm268.689 39.398h-203.985l-15.09-170.802c24.689 2.984 66.341 6.826 117.082 6.826s92.393-3.842 117.082-6.826zm-101.993-178.976c-48.435 0-96.092-3.674-131.623-8.888-9.288-1.363-15.735-10.028-14.372-19.316 1.383-9.424 10.121-15.72 19.316-14.371 36.384 5.339 83.741 8.527 126.679 8.527 39.958 0 87.725-2.811 126.679-8.527 9.288-1.358 17.953 5.084 19.316 14.371 1.363 9.288-5.084 17.953-14.372 19.316-35.127 5.152-82.722 8.888-131.623 8.888zm234.096 126.346c-21.58-4.728-45.307.42-60.45 13.118-1.938 1.624-4.795 1.672-6.95.115-12.661-9.14-29.224-13.455-45.096-12.102l4.393-49.719c14.868-6.093 29.758-15.274 40.562-25.115 4.743-4.32 11.536-5.126 16.905-2.005 27.47 15.971 48.883 41.661 57.278 68.72 1.265 4.079-2.421 7.91-6.642 6.988zm-170.665-53.447c-4.142 0-7.5 3.358-7.5 7.5v12c0 4.142 3.358 7.5 7.5 7.5s7.5-3.358 7.5-7.5v-12c0-4.142-3.358-7.5-7.5-7.5zm-10.441-.235 21.125-3.725c4.079-.719 6.803-4.609 6.084-8.688s-4.607-6.801-8.688-6.084l-21.125 3.725c-4.079.719-6.803 4.609-6.084 8.689.719 4.077 4.609 6.802 8.688 6.083z"/></g></svg>