<svg id="Capa_1" enable-background="new 0 0 512.011 512.011" height="512" viewBox="0 0 512.011 512.011" width="512" xmlns="http://www.w3.org/2000/svg"><g><path d="m457.05 461.828c2.749-20.855 7.805-42.796 13.519-48.516l-106.016-39.816 3.231 116.844h56.711c16.466.001 30.403-12.187 32.555-28.512z" fill="#a09cdc"/><path d="m502.884 411.442c5.055-13.888-2.106-29.243-15.993-34.298l-111.181-40.466c-13.887-5.055-29.243 2.105-34.297 15.993-5.055 13.888 2.106 29.243 15.993 34.298l111.182 40.467c13.913 5.064 29.252-2.134 34.296-15.994z" fill="#f6ee86"/><path d="" fill="#c0ade2"/><path d="m309.036 52.907c22.701-1.039 42.828 10.283 54.246 27.803 3 4.603 8.523 7.026 13.896 5.877 22.824-4.879 45.819 9.033 52.313 31.212 1.818 6.208 7.468 10.502 13.937 10.502h20.226c19.595 0 35.481 15.885 35.481 35.481 0 6.427-5.21 11.638-11.638 11.638h-175.583c-35.397 0-63.785-30.007-61.115-65.97 2.276-30.668 27.516-55.137 58.237-56.543z" fill="#cde9fa"/><path d="m202.544 122.003c-22.701-1.039-42.828 10.283-54.246 27.803-3 4.603-8.524 7.026-13.896 5.877-22.824-4.879-45.819 9.033-52.313 31.212-1.818 6.208-7.468 10.502-13.937 10.502h-20.227c-19.595 0-35.481 15.885-35.481 35.481 0 6.427 5.21 11.638 11.638 11.638h175.584c35.397 0 63.785-30.007 61.115-65.97-2.276-30.669-27.517-55.138-58.237-56.543z" fill="#cde9fa"/><path d="m352.734 76.43-96.728-29.762-96.728 29.762 23.663 156.76h146.13z" fill="#c0ade2"/><path d="m173.917 173.407 9.024 59.782h146.13l9.024-59.783-51.373-18.698c-9.862-3.59-20.196-5.41-30.714-5.41s-20.852 1.82-30.716 5.41z" fill="#a09cdc"/><ellipse cx="256.006" cy="152.178" fill="#cde9fa" rx="36.048" ry="36.048" transform="matrix(.707 -.707 .707 .707 -32.624 225.595)"/><path d="m54.962 461.828c-2.749-20.855-7.805-42.796-13.519-48.516l106.016-39.816-3.231 116.844h-56.712c-16.466.001-30.403-12.187-32.554-28.512z" fill="#a09cdc"/><path d="m9.127 411.442c-5.055-13.888 2.106-29.243 15.993-34.298l111.182-40.467c13.887-5.055 29.243 2.105 34.297 15.993 5.055 13.888-2.106 29.243-15.993 34.298l-111.182 40.467c-13.914 5.065-29.253-2.133-34.297-15.993z" fill="#f6ee86"/><path d="m410.832 349.461-35.122-12.783c-13.887-5.055-29.243 2.105-34.297 15.993-5.055 13.888 2.106 29.243 15.993 34.298l45.614 16.602c1.932-17.569 4.489-35.965 7.812-54.11z" fill="#f2d98d"/><path d="m154.606 386.968c13.888-5.055 21.048-20.41 15.993-34.298-5.054-13.888-20.41-21.048-34.297-15.993l-35.122 12.783c3.323 18.145 5.88 36.541 7.813 54.109z" fill="#f2d98d"/><path d="m367.785 490.341c0-48.123 7.018-148.155 32.082-218.446l-143.861-54.049-143.861 54.049c25.064 70.292 32.082 170.323 32.082 218.446z" fill="#c0ade2"/><path d="m291.78 156.549-5.058-1.841c-9.862-3.59-20.196-5.41-30.714-5.41s-20.852 1.82-30.716 5.41l-5.061 1.842c2.159 17.845 17.347 31.676 35.774 31.676 18.429 0 33.617-13.831 35.775-31.677z" fill="#a2ddfd"/><path d="m412.997 289.547-154.842-56.357c-1.387-.504-2.913-.504-4.297 0l-154.843 56.357c-13.888 5.055-29.243-2.106-34.297-15.993-5.054-13.888 2.106-29.244 15.993-34.298l154.842-56.357c13.189-4.8 27.717-4.802 40.907 0l154.841 56.357c13.887 5.054 21.048 20.41 15.993 34.298-5.038 13.841-20.367 21.063-34.297 15.993z" fill="#f6ee86"/><path d="m181.655 202.516-100.944 36.74c-13.888 5.054-21.048 20.41-15.993 34.298 5.054 13.887 20.41 21.048 34.297 15.993l103.711-37.747c-16.944-4.388-26.762-34.67-21.071-49.284z" fill="#f2d98d"/><path d="" fill="#c0ade2"/><path d="" fill="#c0ade2"/><path d="m244.091 402.452c-8.437 4.131-18.271 6.469-30.468 6.312-11.443-.148-20.145 10.169-17.811 21.372 3.055 14.66 6.526 35.316 8.473 60.205h103.441c1.947-24.889 5.418-45.545 8.473-60.205 2.335-11.203-6.367-21.52-17.811-21.372-12.197.158-22.031-2.181-30.468-6.312-7.538-3.691-16.29-3.691-23.829 0z" fill="#565e75"/><g><g><ellipse cx="175.198" cy="354.85" fill="#fff" rx="29.816" ry="23.744"/><ellipse cx="336.813" cy="354.85" fill="#fff" rx="29.816" ry="23.744"/><path d="m290.858 339.715c0-15.073-15.604-16.489-34.853-16.489s-34.853 1.416-34.853 16.489c0 15.072 15.604 27.291 34.853 27.291s34.853-12.218 34.853-27.291z" fill="#565e75"/></g></g><path d="m356.586 99.95c-47.742-7.568-66.441-13.925-100.58-26.619-31.472 11.702-50.19 18.631-100.58 26.619-13.634 2.162-26.444-7.141-28.606-20.777-2.162-13.637 7.141-26.444 20.778-28.605 51.565-8.174 65.437-14.733 99.782-27.364 5.568-2.047 11.685-2.047 17.253 0 35.066 12.897 48.465 19.23 99.782 27.364 13.637 2.161 22.939 14.969 20.778 28.605-2.172 13.69-15.033 22.937-28.607 20.777z" fill="#f6ee86"/><path d="m215.198 34.955c-17.263 5.868-34.811 10.415-67.6 15.613-13.637 2.161-22.939 14.969-20.778 28.605 2.162 13.637 14.972 22.939 28.606 20.777 36.747-5.825 56.65-11.089 76.94-18.05-12.377-4.228-25.46-23.355-17.168-46.945z" fill="#f2d98d"/><path d="m327.516 293.667-21.125 3.725c-4.079.719-6.803 4.608-6.084 8.689.723 4.098 4.634 6.802 8.688 6.083l21.124-3.725c4.079-.719 6.803-4.608 6.084-8.689-.718-4.08-4.603-6.805-8.687-6.083zm161.94 76.43-98.618-35.894c2.851-14.074 6.18-27.917 10.049-41.083l9.545 3.474c17.81 6.484 37.442-2.705 43.91-20.475 6.475-17.791-2.68-37.436-20.476-43.911l-92.007-33.488 2.385-15.801h143.254c10.553 0 19.138-8.585 19.138-19.138 0-23.699-19.281-42.98-42.98-42.98h-20.227c-3.136 0-5.844-2.053-6.739-5.109-5.905-20.164-23.517-34.611-43.858-37.158 1.744-17.013-10.075-32.653-27.243-35.373-50.216-7.96-62.892-13.952-98.369-26.996-7.231-2.657-15.195-2.659-22.429 0-29.77 10.948-43.966 17.259-80.861 24.021-4.074.747-6.772 4.655-6.025 8.729s4.658 6.775 8.729 6.024c38.202-7.001 52.924-13.507 83.333-24.697 3.896-1.432 8.184-1.432 12.077 0 35.461 13.041 49.466 19.533 101.197 27.732 9.553 1.515 16.059 10.471 14.544 20.023-1.519 9.583-10.508 16.061-20.024 14.545-47.677-7.559-65.813-13.851-99.141-26.242-1.687-.627-3.542-.627-5.228 0-30.771 11.441-49.344 18.348-99.141 26.242-9.552 1.512-18.51-4.991-20.023-14.544-.818-5.159.693-10.372 4.146-14.303 2.734-3.111 2.428-7.85-.683-10.584-3.112-2.734-7.85-2.43-10.585.684-6.408 7.292-9.213 16.97-7.694 26.551 2.796 17.637 19.273 29.721 36.954 27.042l3.035 20.103c-6.831 4.955-12.791 11.167-17.386 18.218-1.344 2.064-3.774 3.124-6.045 2.639-26.603-5.692-53.431 10.318-61.079 36.439-.895 3.057-3.603 5.109-6.739 5.109h-20.226c-23.7 0-42.981 19.281-42.981 42.98 0 10.553 8.585 19.138 19.138 19.138h33.847c-3.017 7.746-3.129 16.22-.259 24.104 6.475 17.793 26.113 26.951 43.91 20.475l9.545-3.474c3.869 13.166 7.198 27.009 10.049 41.083l-98.619 35.894c-17.791 6.476-26.952 26.117-20.475 43.91 6.049 16.619 23.602 25.732 40.424 21.534 1.94 7.739 3.705 17.268 5.022 27.268 2.632 19.971 19.825 35.031 39.991 35.031h318.889c4.142 0 7.5-3.357 7.5-7.5 0-4.142-3.358-7.5-7.5-7.5h-31.067c.282-20.359 1.703-48.626 5.028-79.533l74.926 27.271c-2.224 8.557-4.196 19.019-5.679 30.27-1.01 7.661-5.393 14.352-12.025 18.354-3.546 2.14-4.686 6.75-2.546 10.296 2.13 3.529 6.733 4.696 10.297 2.546 10.559-6.372 17.537-17.028 19.145-29.236 1.318-10 3.083-19.528 5.023-27.267 16.78 4.188 34.362-4.877 40.424-21.534 6.475-17.79-2.682-37.432-20.477-43.909zm-133.81-262.711c13.083 1.985 25.311-4.099 31.999-14.237 15.905.528 30.117 11.281 34.649 26.758 2.74 9.358 11.43 15.895 21.134 15.895h20.227c15.429 0 27.98 12.552 27.98 27.98 0 2.281-1.856 4.138-4.138 4.138h-140.989zm-99.639-26.053c28.347 10.511 47.271 16.958 84.84 23.591l-13.369 88.563-37.751-13.741c6.287-7.665 9.826-17.334 9.826-27.568 0-24.013-19.536-43.548-43.548-43.548s-43.547 19.535-43.547 43.548c0 10.235 3.539 19.904 9.826 27.569l-37.752 13.74c-1.487-9.85-11.693-77.462-13.369-88.563 39.417-6.953 57.85-13.562 84.844-23.591zm28.547 70.845c0 8.657-3.872 16.695-10.492 22.094-11.799-3.282-24.308-3.283-36.111 0-6.62-5.399-10.492-13.437-10.492-22.095 0-15.741 12.806-28.548 28.547-28.548s28.548 12.808 28.548 28.549zm-260.472 84.837c-2.282 0-4.138-1.856-4.138-4.138 0-15.429 12.552-27.98 27.981-27.98h20.226c9.704 0 18.395-6.536 21.135-15.895 5.453-18.626 24.582-30.036 43.547-25.985 8.299 1.773 17.037-1.889 21.748-9.116 2.132-3.272 4.639-6.316 7.438-9.062l8.133 53.882c-95.929 35.438-93.77 32.943-100.9 38.294zm72.367 45.484c-9.999 3.642-21.043-1.505-24.684-11.51-3.647-10.019 1.526-21.052 11.51-24.685 18.011-6.556 125.753-45.77 154.842-56.357 18.975-6.904 35.109-.244 35.009-.261 1.691.586 152.602 55.524 155.609 56.618 10.001 3.639 15.152 14.681 11.51 24.685-3.637 9.995-14.681 15.152-24.684 11.51l-154.845-56.357c-3.035-1.104-6.384-1.105-9.424.001zm-55.59 137.888c-9.985 3.637-21.039-1.495-24.684-11.511-3.64-9.999 1.506-21.044 11.51-24.684l96.325-35.059c2.316 13.011 4.251 26.079 5.853 38.859zm46.657 62.453c-12.668 0-23.467-9.454-25.12-21.991-1.482-11.252-3.454-21.714-5.678-30.271l74.926-27.271c3.325 30.907 4.746 59.174 5.028 79.533zm221.341-54.234c-3.618 17.361-6.304 35.575-8.014 54.234h-89.675c-1.71-18.659-4.396-36.874-8.014-54.234-1.355-6.503 3.67-12.389 10.372-12.343 12.718.188 23.802-2.15 33.862-7.075 5.477-2.682 11.758-2.683 17.235 0 10.06 4.926 21.135 7.238 33.863 7.075 6.699-.026 11.729 5.829 10.371 12.343zm51.482 54.234h-44.435c1.663-17.614 4.224-34.793 7.637-51.174 3.314-15.903-9.033-30.639-25.249-30.401-10.324.104-19.175-1.683-27.074-5.55-9.668-4.732-20.757-4.732-30.425 0-7.898 3.867-16.747 5.661-27.073 5.55-16.243-.252-28.556 14.536-25.25 30.401 3.413 16.38 5.974 33.56 7.637 51.174h-44.434c-.817-59.779-9.495-137.705-26.424-194.861l130.758-47.59 130.757 47.59c-16.929 57.153-25.608 135.089-26.425 194.861zm135.498-73.963c-3.604 9.905-14.592 15.187-24.685 11.511l-89.003-32.394c1.603-12.78 3.537-25.848 5.853-38.859l96.323 35.059c10.003 3.64 15.154 14.678 11.512 24.683zm-212.678-90.126c-7.073-2.51-15.97-3.024-27.153-3.024s-20.08.515-27.153 3.024c-12.563 4.458-15.2 13.861-15.2 20.965 0 19.184 18.999 34.791 42.353 34.791s42.353-15.607 42.353-34.791c-.001-7.104-2.638-16.507-15.2-20.965zm-27.153 40.755c-14.827 0-27.353-9.064-27.353-19.791 0-5.093 2.014-8.989 27.353-8.989s27.353 3.897 27.353 8.989c-.001 10.728-12.527 19.791-27.353 19.791zm63.43-47.108c-4.142 0-7.5 3.357-7.5 7.5v12c0 4.143 3.358 7.5 7.5 7.5s7.5-3.357 7.5-7.5v-12c0-4.143-3.358-7.5-7.5-7.5zm-113.816-15.007-21.125-3.725c-4.077-.725-7.969 2.005-8.688 6.083-.719 4.08 2.005 7.97 6.084 8.689l21.124 3.725c4.049.718 7.965-1.981 8.688-6.083.72-4.08-2.004-7.97-6.083-8.689zm-13.045 15.007c-4.142 0-7.5 3.357-7.5 7.5v12c0 4.143 3.358 7.5 7.5 7.5s7.5-3.357 7.5-7.5v-12c0-4.143-3.358-7.5-7.5-7.5z"/></g></svg>