<svg id="Capa_1" enable-background="new 0 0 512 512" height="512" viewBox="0 0 512 512" width="512" xmlns="http://www.w3.org/2000/svg"><g><path d="m297.269 119.589c0-29.026-23.53-52.556-52.556-52.556s-52.556 23.53-52.556 52.556 23.53 46.683 52.556 46.683 52.556-17.657 52.556-46.683z" fill="#c0ade2"/><path d="m293.477 138.342c-57.936 6.712-79.517-42.304-57.914-70.499-24.662 4.332-43.407 25.843-43.407 51.746 0 29.026 23.53 46.683 52.556 46.683 22.096 0 40.994-10.24 48.765-27.93z" fill="#a09cdc"/><ellipse cx="339.17" cy="41.67" fill="#c0ade2" rx="34.17" ry="34.17" transform="matrix(.973 -.23 .23 .973 -.501 79.04)"/><path d="m322.322 226.657v-54.569h-132.644v54.569c0 10.438-5.873 19.913-15.1 24.794-49.805 26.349-83.395 76.12-83.395 133.189 0 84.591 58.627 119.86 164.817 119.86 106.189 0 164.816-35.269 164.816-119.86 0-57.069-33.59-106.839-83.395-133.189-9.226-4.881-15.099-14.356-15.099-24.794z" fill="#cde9fa"/><path d="m174.163 394.174c-13.877-45.657-8.46-99.831 9.751-150.624-2.463 3.217-5.621 5.936-9.336 7.901-49.805 26.35-83.395 76.12-83.395 133.189 27.478 4.766 54.39 6.673 82.98 9.534z" fill="#a2ddfd"/><path d="m420.816 384.64c0 36.659-49.665 39.656-138.716-8.473 50.891-41.163 138.716-28.186 138.716 8.473z" fill="#a09cdc"/><path d="m256 504.5c106.189 0 164.816-35.269 164.816-119.86 0 36.659-69.642 19.873-138.716-8.473-70.66-28.997-149.602-38.304-190.917 8.473.001 84.591 58.628 119.86 164.817 119.86z" fill="#c0ade2"/><path d="m166.762 352.191c-30.11 1.467-56.752 11.133-75.579 32.449 0 84.591 58.627 119.86 164.817 119.86 20.724 0 39.626-1.35 56.645-4.141-99.491-13.747-141.305-75.563-145.883-148.168z" fill="#a09cdc"/><g><g fill="#fff"><ellipse cx="172.435" cy="462.477" rx="30.834" ry="24.555"/><ellipse cx="339.565" cy="462.477" rx="30.834" ry="24.555"/></g></g><path d="m323.63 172.088h-135.26c-10.933 0-19.796-8.863-19.796-19.796v-13.111c0-10.933 8.863-19.796 19.796-19.796h135.26c10.933 0 19.796 8.863 19.796 19.796v13.111c0 10.933-8.863 19.796-19.796 19.796z" fill="#a2ddfd"/><ellipse cx="256" cy="286.396" fill="#c0ade2" rx="34.757" ry="34.757" transform="matrix(.987 -.16 .16 .987 -42.57 44.705)"/><path d="m351.558 81.467c3.955-1.23 6.165-5.434 4.936-9.389-1.23-3.956-5.431-6.167-9.389-4.936-17.21 5.351-34.605-7.592-34.605-25.473 0-14.706 11.965-26.67 26.671-26.67 16.383 0 29.043 14.754 26.304 31.111-.685 4.085 2.072 7.952 6.157 8.636 4.094.687 7.952-2.071 8.636-6.157 4.25-25.325-15.3-48.589-41.098-48.589-22.977 0-41.671 18.693-41.671 41.67 0 27.931 27.167 48.154 54.059 39.797zm-34.052 356.735c0-3.532 2.874-6.405 6.406-6.405s6.406 2.873 6.406 6.405c0 4.143 3.357 7.5 7.5 7.5s7.5-3.357 7.5-7.5c0-11.803-9.603-21.405-21.406-21.405-11.804 0-21.406 9.603-21.406 21.405 0 4.143 3.357 7.5 7.5 7.5 4.142 0 7.5-3.357 7.5-7.5zm-61.506 15.641c8.796 0 17.16-3.81 22.948-10.451 2.722-3.123 2.396-7.86-.727-10.582-3.124-2.722-7.862-2.396-10.582.727-2.938 3.372-7.182 5.307-11.64 5.307s-8.701-1.935-11.64-5.307c-2.723-3.122-7.461-3.447-10.582-.727-3.122 2.722-3.448 7.459-.727 10.582 5.79 6.641 14.154 10.451 22.95 10.451zm-58.096-15.306v-12c0-4.143-3.357-7.5-7.5-7.5s-7.5 3.357-7.5 7.5v12c0 4.143 3.357 7.5 7.5 7.5s7.5-3.357 7.5-7.5zm58.096-194.397c-23.301 0-42.257 18.956-42.257 42.256 0 23.301 18.956 42.257 42.257 42.257s42.257-18.956 42.257-42.257c0-23.3-18.956-42.256-42.257-42.256zm0 69.512c-15.029 0-27.257-12.228-27.257-27.257s12.228-27.255 27.257-27.255 27.257 12.227 27.257 27.256-12.228 27.256-27.257 27.256zm84.928-68.831c-6.851-3.624-11.106-10.584-11.106-18.164v-47.786c12.078-2.813 21.105-13.658 21.105-26.579v-13.111c0-15.051-12.245-27.296-27.297-27.296h-19.378c-3.804-29.471-29.085-52.352-59.539-52.352-30.522 0-55.849 22.983-59.565 52.548-13.538 1.6-24.075 13.139-24.075 27.099v13.111c0 12.921 9.028 23.766 21.105 26.579v47.786c0 7.58-4.256 14.54-11.106 18.164-53.975 28.556-87.389 82.182-87.389 139.818 0 30.983 7.725 56.653 22.959 76.302 2.545 3.283 7.26 3.862 10.522 1.331 3.273-2.538 3.869-7.249 1.331-10.522-12.869-16.598-19.336-37.646-19.77-64.238 42.454-44.813 123.582-27.889 180.518-4.41 16.755 6.227 96.455 40.574 132.018 26.742-4.585 26.263-16.904 46.12-37.31 60.287-25.679 17.83-65.364 26.87-117.951 26.87-49.202 0-87.141-7.905-112.762-23.495-3.536-2.151-8.152-1.03-10.306 2.509-2.153 3.538-1.03 8.152 2.509 10.306 28.399 17.28 67.833 25.68 120.559 25.68 56.487 0 97.868-9.665 126.507-29.548 30.396-21.103 45.809-54.012 45.81-97.811 0 0 0 0 0-.001s0 0 0-.001c-.001-57.725-33.486-111.3-87.389-139.818zm-96.215-170.288c22.181 0 40.704 16.178 44.378 37.352h-88.756c3.673-21.174 22.197-37.352 44.378-37.352zm-68.64 77.759v-13.111c0-6.78 5.517-12.296 12.297-12.296 1.425 0 3.896 0 3.793 0h131.467c6.78 0 12.297 5.516 12.297 12.296v13.111c0 6.78-5.517 12.296-12.297 12.296h-135.26c-6.78 0-12.297-5.516-12.297-12.296zm-76.127 214.101c6.179-45.017 34.933-85.453 78.14-108.312 11.777-6.23 19.093-18.271 19.093-31.424v-47.069h117.643v47.069c0 13.153 7.315 25.193 19.093 31.424 39.736 21.022 67.259 56.912 76.23 97.559-29.78-18.75-89.669-17.361-129.241 11.974-56.444-22.472-132.345-37.684-180.958-1.221zm308.825 27.985c-5.302 3.555-28.576 12.088-110.958-20.002 48.16-28.741 115.504-15.336 115.504 10.264-.178.607.642 6.258-4.546 9.738z"/></g></svg>